<svg id="ape" data-name="ape" xmlns="http://www.w3.org/2000/svg" viewBox="0 0 54 54"><defs><style>.cls-1{fill:#a16552;}.cls-2{fill:#ecf1f6;}.cls-3{fill:#edf2f5;}.cls-4{fill:#edf1f4;}.cls-5{fill:#5a6477;}.cls-6{fill:#bcc5d9;}.cls-7{fill:#97a7c7;}.cls-8{fill:#5b6477;}.cls-9{fill:#77849d;}.cls-10{fill:#fff;}.cls-11{fill:#4e3f3f;isolation:isolate;opacity:0.35;}</style></defs><path class="cls-1" d="M7.6,19.78A18,18,0,0,0,7,24.56v.33a25,25,0,0,1-.65,5.79A6.07,6.07,0,0,1,3.59,28.6c-2.33-3-1.55-7.67,1.31-8.78a3.6,3.6,0,0,1,2.7-.05Z"/><path class="cls-2" d="M7.6,19.78A18,18,0,0,0,7,24.56v.33a25,25,0,0,1-.65,5.79A6.07,6.07,0,0,1,3.59,28.6c-2.33-3-1.55-7.67,1.31-8.78a3.6,3.6,0,0,1,2.7-.05Z"/><path class="cls-1" d="M50.42,28.6a6.16,6.16,0,0,1-2.7,2.09,24.09,24.09,0,0,1-.65-5.79v-.34a18.45,18.45,0,0,0-.66-4.79,3.65,3.65,0,0,1,2.7.05C52,20.93,52.75,25.65,50.42,28.6Z"/><path class="cls-3" d="M50.42,28.6a6.16,6.16,0,0,1-2.7,2.09,24.09,24.09,0,0,1-.65-5.79v-.34a18.45,18.45,0,0,0-.66-4.79,3.65,3.65,0,0,1,2.7.05C52,20.93,52.75,25.65,50.42,28.6Z"/><path class="cls-1" d="M41.49,30.74a5.24,5.24,0,0,0-.57,4.46,11.66,11.66,0,0,1,.73,3.34c0,6.92-6.56,12.52-14.64,12.52s-14.65-5.6-14.65-12.52a11.66,11.66,0,0,1,.73-3.34,5.22,5.22,0,0,0-.57-4.45,8.07,8.07,0,0,1-1.27-4.32A8.54,8.54,0,0,1,20,18.11a9.12,9.12,0,0,1,4.45,1.16,5.18,5.18,0,0,0,5.14,0A9.08,9.08,0,0,1,34,18.11a8.55,8.55,0,0,1,8.74,8.32A7.91,7.91,0,0,1,42,29.75,5.91,5.91,0,0,1,41.49,30.74Z"/><path class="cls-4" d="M41.49,30.74a5.24,5.24,0,0,0-.57,4.46,11.66,11.66,0,0,1,.73,3.34c0,6.92-6.56,12.52-14.64,12.52s-14.65-5.6-14.65-12.52a11.66,11.66,0,0,1,.73-3.34,5.22,5.22,0,0,0-.57-4.45,8.07,8.07,0,0,1-1.27-4.32A8.54,8.54,0,0,1,20,18.11a9.12,9.12,0,0,1,4.45,1.16,5.18,5.18,0,0,0,5.14,0A9.08,9.08,0,0,1,34,18.11a8.55,8.55,0,0,1,8.74,8.32A7.91,7.91,0,0,1,42,29.75,5.91,5.91,0,0,1,41.49,30.74Z"/><path class="cls-5" d="M19.55,40.09a.82.82,0,0,0-.84.83V41c.52,3.71,4,6.58,8.3,6.58S34.78,44.74,35.3,41a.84.84,0,0,0-.73-.94h-15Z"/><path class="cls-6" d="M22.19,46.23a9.09,9.09,0,0,0,9.63,0c-.6-2.09-2.53-1.61-4.82-1.61S22.79,44.14,22.19,46.23Z"/><path class="cls-7" d="M50.1,18.28a4.56,4.56,0,0,0-4.08.23,19.66,19.66,0,0,0-.81-2c-.22-.49-.47-1-.73-1.44A22.49,22.49,0,0,0,32.26,4.45l-.1-2.76-3.31,2-.4,0c-.25,0-.49,0-.74-.05L27.23,1.5,27.09.9a3.93,3.93,0,0,0-.49,0,6.39,6.39,0,0,0-4.85,3.53A22.53,22.53,0,0,0,9.53,15c-.26.47-.51,1-.73,1.44-.3.67-.58,1.35-.81,2l-.13-.06a4.51,4.51,0,0,0-3.95-.17C.27,19.69-.71,25.69,2.24,29.43a7.63,7.63,0,0,0,3.69,2.73c0,.07,0,.14,0,.21a14.27,14.27,0,0,0-.33,3.06c0,7.14,5.27,13.29,12.82,16a25.09,25.09,0,0,0,5.48,1.28,23.88,23.88,0,0,0,2.93.18H27c11.84,0,21.45-7.81,21.45-17.45a14.43,14.43,0,0,0-.33-3.07c0-.07,0-.13-.05-.2a7.59,7.59,0,0,0,3.69-2.73C54.72,25.69,53.74,19.69,50.1,18.28ZM7.6,19.78A18,18,0,0,0,7,24.56v.33a25,25,0,0,1-.65,5.79A6.07,6.07,0,0,1,3.59,28.6c-2.33-3-1.55-7.67,1.31-8.78a3.6,3.6,0,0,1,2.7-.05ZM42,29.75a5.91,5.91,0,0,1-.54,1,5.24,5.24,0,0,0-.57,4.46,11.66,11.66,0,0,1,.73,3.34c0,6.92-6.56,12.52-14.64,12.52s-14.65-5.6-14.65-12.52a11.66,11.66,0,0,1,.73-3.34,5.22,5.22,0,0,0-.57-4.45,8.07,8.07,0,0,1-1.27-4.32A8.54,8.54,0,0,1,20,18.11a9.12,9.12,0,0,1,4.45,1.16,5.18,5.18,0,0,0,5.14,0A9.08,9.08,0,0,1,34,18.11a8.55,8.55,0,0,1,8.74,8.32A7.91,7.91,0,0,1,42,29.75Zm8.39-1.15a6.16,6.16,0,0,1-2.7,2.09,24.09,24.09,0,0,1-.65-5.79v-.34a18.45,18.45,0,0,0-.66-4.79,3.65,3.65,0,0,1,2.7.05C52,20.93,52.75,25.65,50.42,28.6Z"/><rect class="cls-5" x="24.11" y="32.91" width="1.41" height="3.19" rx="0.68" transform="translate(-16.89 42.74) rotate(-65.45)"/><rect class="cls-5" x="27.6" y="33.81" width="3.19" height="1.41" rx="0.68" transform="translate(-11.7 15.25) rotate(-24.55)"/><path class="cls-8" d="M19.48,29.75h0A2.44,2.44,0,0,1,17,27.37v-.79a2.45,2.45,0,0,1,2.5-2.38h0A2.45,2.45,0,0,1,22,26.58v.79A2.44,2.44,0,0,1,19.48,29.75Z"/><path class="cls-9" d="M19.48,24.2V27A1.26,1.26,0,0,0,22,27v-.39A2.44,2.44,0,0,0,19.48,24.2Z"/><ellipse class="cls-10" cx="19.48" cy="25.79" rx="0.84" ry="0.79"/><path class="cls-8" d="M34.53,29.75h0A2.44,2.44,0,0,1,32,27.37v-.79a2.45,2.45,0,0,1,2.51-2.38h0A2.45,2.45,0,0,1,37,26.58v.79A2.45,2.45,0,0,1,34.53,29.75Z"/><path class="cls-9" d="M34.53,24.2V27A1.26,1.26,0,0,0,37,27v-.39A2.45,2.45,0,0,0,34.53,24.2Z"/><ellipse class="cls-10" cx="34.53" cy="25.79" rx="0.84" ry="0.79"/><path class="cls-11" d="M27.23,1.51c-.56-.06-1.79.83-3.26,2.36-.36.38-.75.8-1.14,1.26C20,8.51,16.61,13.84,15.46,19.31c-1.92,9.19-2.7,19.84.69,25.76a22.18,22.18,0,0,0,7.7,7.63,24.55,24.55,0,0,1-5.48-1.29c-7.55-2.69-12.82-8.84-12.82-16a14.44,14.44,0,0,1,.34-3.07c0-.07,0-.13,0-.2a7.65,7.65,0,0,1-3.69-2.73c-2.95-3.74-2-9.74,1.67-11.15a4.58,4.58,0,0,1,4,.17l.13.07a20.13,20.13,0,0,1,.81-2c.23-.49.47-1,.73-1.45A22.53,22.53,0,0,1,21.75,4.45,6.39,6.39,0,0,1,26.6.92a3.93,3.93,0,0,1,.49,0Z"/></svg>